<svg xmlns="http://www.w3.org/2000/svg" viewBox="0 0 48 36">
    <path d="M24 26c3.3 0 6-2.7 6-6s-2.7-6-6-6-6 2.7-6 6 2.7 6 6 6zm0-10c2.2 0 4 1.8 4 4s-1.8 4-4 4-4-1.8-4-4 1.8-4 4-4z"/>
    <path d="M23 21c.6 0 1-.4 1-1 .6 0 1-.4 1-1s-.4-1-1-1c-1.1 0-2 .9-2 2 0 .6.4 1 1 1z"/>
    <path d="M47 0H1C.4 0 0 .4 0 1v7c0 2.2 1.8 4 4 4v4c0 11 9 20 20 20s20-9 20-20v-4c2.2 0 4-1.8 4-4V1c0-.6-.4-1-1-1zm-5 16c0 9.9-8.1 18-18 18S6 25.9 6 16v-4h12.1c-2.4 1.8-4.1 4.7-4.1 8 0 5.5 4.5 10 10 10s10-4.5 10-10c0-3.3-1.6-6.2-4.1-8H42v4zm-18-4c4.4 0 8 3.6 8 8s-3.6 8-8 8-8-3.6-8-8 3.6-8 8-8zm22-4c0 1.1-.9 2-2 2H4c-1.1 0-2-.9-2-2V2h44v6z"/>
    <circle cx="37" cy="15" r="1"/>
</svg>
