<svg xmlns="http://www.w3.org/2000/svg" viewBox="0 0 110.5 26.4">
  <path fill="red" d="M8.7 14v8.7h2.4V0H7.5C3.9 0 .9 2.4.9 7.1c0 3.4 1.3 5.2 3.3 6.3L0 22.7h2.8L6.7 14h2zm0-2.1H7.4c-2.1 0-3.9-1.2-3.9-4.8C3.5 3.3 5.4 2 7.4 2h1.3v9.9z"/>
  <path d="M35.6 20.6h-1.3V6.7H27v1.4c0 4.3-.2 9.2-1.6 12.6h-1v5.2h2.2v-3.1h6.8v3.1h2.2v-5.3zm10.8 1l-.6-1.9c-.6.4-1.7 1.1-3.1 1.1-2 0-3-1.9-3-5.5h6.7v-1.4c0-5.4-1.7-7.4-4.4-7.4-3.4 0-4.8 3.7-4.8 8.9 0 4.9 2 7.5 5.3 7.5 1.5 0 2.9-.5 3.9-1.3zM20.5 6.7v6.8h-3.7V6.7h-2.5v16h2.5v-7.2h3.7v7.2h2.4v-16h-2.4zm35.1 16h2.7l-4.5-8.5 4-7.5h-2.5l-3.8 7.4V6.7H49v16h2.5v-7.9l4.1 7.9zm8.5.2c1.5 0 2.5-.5 3.3-1.2l-.6-1.8c-.6.5-1.5 1-2.7 1-2 0-3-2.3-3-6.3s1.3-6 3.1-6c1 0 2 .5 2.6 1.1l.3-2.4c-.7-.4-1.5-.8-2.9-.8-3.7 0-5.7 3.2-5.7 8.2.1 5.4 2.2 8.2 5.6 8.2zm-32.2-2.3h-4.3c1.3-3.4 1.5-8.3 1.5-11.7v-.2h2.8v11.9zm10-12.1c1.4 0 1.9 2 1.9 4.7h-4.1c.2-2.8.7-4.7 2.2-4.7zM83 21.4h-7.1c.8-1 1.4-3.3 1.6-6.7.3-3.3.5-7.7.6-13.4H83v20.1zm1.9 5h1.2v-5.1h-1.6V0h-7.9c-.1 6.3-.2 11.3-.5 14.7-.3 3.2-.9 5.8-2 6.7h-.7v5.1h1.2l.2-3.8h9.7l.4 3.7zm7.7-3.4c2.8 0 4.9-3.1 4.9-8.4 0-5.5-2.1-8.2-4.9-8.2s-4.9 3.1-4.9 8.4c0 5.4 2.1 8.2 4.9 8.2zm0-1.2c-1.9 0-3.4-2.1-3.4-7.1 0-4.9 1.5-7.1 3.4-7.1S96 9.7 96 14.7c0 4.8-1.5 7.1-3.4 7.1zm12.1-1h1.2l2.7-9.4c.2-.8.3-1.5.5-2.4h.1c-.1.9-.1 1.8-.1 2.8v10.8h1.4v-16h-1.7l-2.9 9.8c-.3 1.1-.4 1.9-.5 2.7h-.1c-.1-.8-.2-1.6-.5-2.7L102 6.7h-1.7v16h1.3V11.8c0-1.1-.1-1.9-.2-2.8h.1c.2.8.3 1.5.5 2.4l2.7 9.4z"/>
</svg>